<svg width="560" height="240" viewBox="0 0 560 240" fill="none" xmlns="http://www.w3.org/2000/svg" role="img" aria-labelledby="title desc">
  <title id="title">SST_FTM card</title>
  <desc id="desc">A featured project card for SST_FTM and its structured SST reconstruction pipeline.</desc>

  <defs>
    <linearGradient id="bg" x1="20" y1="16" x2="538" y2="226" gradientUnits="userSpaceOnUse">
      <stop stop-color="#FFF8F1"/>
      <stop offset="1" stop-color="#EEF7FF"/>
    </linearGradient>
    <linearGradient id="curve" x1="88" y1="170" x2="506" y2="108" gradientUnits="userSpaceOnUse">
      <stop stop-color="#EA580C"/>
      <stop offset="1" stop-color="#2563EB"/>
    </linearGradient>
  </defs>

  <rect x="10" y="10" width="540" height="220" rx="24" fill="url(#bg)"/>
  <rect x="10" y="10" width="540" height="220" rx="24" stroke="#D7E3EE"/>

  <text x="36" y="48" fill="#C2410C" font-family="ui-monospace, SFMono-Regular, Menlo, monospace" font-size="14" letter-spacing="2">FEATURED 02</text>
  <text x="36" y="84" fill="#0F172A" font-family="Georgia, 'Times New Roman', serif" font-size="30" font-weight="700">SST_FTM</text>
  <text x="36" y="113" fill="#334155" font-family="system-ui, -apple-system, BlinkMacSystemFont, 'Segoe UI', sans-serif" font-size="17">A structured SST reconstruction project combining FTM priors, FNO residual learning, and attention.</text>

  <rect x="36" y="136" width="100" height="28" rx="14" fill="#FFEDD5"/>
  <rect x="146" y="136" width="110" height="28" rx="14" fill="#DBEAFE"/>
  <rect x="266" y="136" width="98" height="28" rx="14" fill="#D1FAE5"/>
  <rect x="374" y="136" width="116" height="28" rx="14" fill="#EDE9FE"/>
  <text x="60" y="155" fill="#C2410C" font-family="ui-monospace, SFMono-Regular, Menlo, monospace" font-size="12">SST</text>
  <text x="176" y="155" fill="#1D4ED8" font-family="ui-monospace, SFMono-Regular, Menlo, monospace" font-size="12">FTM prior</text>
  <text x="293" y="155" fill="#0F766E" font-family="ui-monospace, SFMono-Regular, Menlo, monospace" font-size="12">FNO</text>
  <text x="401" y="155" fill="#6D28D9" font-family="ui-monospace, SFMono-Regular, Menlo, monospace" font-size="12">CBAM</text>

  <path d="M36 193C79 177 112 158 147 160C192 162 220 202 264 201C314 199 338 149 388 138C425 130 458 137 506 168" stroke="url(#curve)" stroke-width="5" stroke-linecap="round"/>

  <text x="36" y="208" fill="#475569" font-family="ui-monospace, SFMono-Regular, Menlo, monospace" font-size="13">Track: Scientific ML / SST reconstruction</text>
</svg>
