<svg width="560" height="190" viewBox="0 0 560 190" fill="none" xmlns="http://www.w3.org/2000/svg" role="img" aria-labelledby="title desc">
  <title id="title">Private Ocean Agent Infrastructure card</title>
  <desc id="desc">A minimal project card for private ocean agent infrastructure.</desc>

  <defs>
    <linearGradient id="bg" x1="16" y1="16" x2="544" y2="174" gradientUnits="userSpaceOnUse">
      <stop stop-color="#FBFAF7"/>
      <stop offset="1" stop-color="#F3F7F4"/>
    </linearGradient>
    <linearGradient id="accent" x1="404" y1="128" x2="514" y2="82" gradientUnits="userSpaceOnUse">
      <stop stop-color="#D8895F"/>
      <stop offset="0.58" stop-color="#5A7FD2"/>
      <stop offset="1" stop-color="#4D8A7D"/>
    </linearGradient>
  </defs>

  <rect x="12" y="12" width="536" height="166" rx="28" fill="url(#bg)"/>
  <rect x="12" y="12" width="536" height="166" rx="28" stroke="#E2E8EE"/>

  <rect x="28" y="28" width="124" height="134" rx="24" fill="#FFFFFF" fill-opacity="0.72"/>
  <rect x="28" y="28" width="124" height="134" rx="24" stroke="#E7ECF1"/>
  <rect x="44" y="44" width="60" height="20" rx="10" fill="#FBF1EA"/>
  <text x="54" y="58" fill="#AA6646" font-family="ui-monospace, SFMono-Regular, Menlo, monospace" font-size="9">PROJECT</text>
  <text x="44" y="98" fill="#0F172A" font-family="Georgia, 'Times New Roman', serif" font-size="36" font-weight="700">01</text>
  <text x="44" y="122" fill="#526173" font-family="ui-monospace, SFMono-Regular, Menlo, monospace" font-size="10">AGENT</text>
  <text x="44" y="137" fill="#526173" font-family="ui-monospace, SFMono-Regular, Menlo, monospace" font-size="10">SYSTEMS</text>

  <text x="176" y="68" fill="#0F172A" font-family="Georgia, 'Times New Roman', serif" font-size="24" font-weight="700">Ocean Agent Infra</text>
  <text x="176" y="94" fill="#64748B" font-family="ui-monospace, SFMono-Regular, Menlo, monospace" font-size="11">private scientific service</text>

  <rect x="176" y="112" width="66" height="20" rx="10" fill="#FBF1EA"/>
  <rect x="250" y="112" width="86" height="20" rx="10" fill="#EEF6F3"/>
  <text x="194" y="125" fill="#AA6646" font-family="ui-monospace, SFMono-Regular, Menlo, monospace" font-size="9">private</text>
  <text x="267" y="125" fill="#4D8378" font-family="ui-monospace, SFMono-Regular, Menlo, monospace" font-size="9">ocean tasks</text>

  <rect x="392" y="38" width="128" height="114" rx="22" fill="#FFFFFF" fill-opacity="0.66"/>
  <rect x="392" y="38" width="128" height="114" rx="22" stroke="#E2E8EE"/>
  <rect x="406" y="50" width="72" height="18" rx="9" fill="#FBF1EA"/>
  <text x="420" y="62" fill="#AA6646" font-family="ui-monospace, SFMono-Regular, Menlo, monospace" font-size="8.5">service graph</text>
  <g opacity="0.16">
    <path d="M408 78H504" stroke="#0F172A"/>
    <path d="M408 102H504" stroke="#0F172A"/>
    <path d="M408 126H504" stroke="#0F172A"/>
    <path d="M432 72V132" stroke="#0F172A"/>
    <path d="M464 72V132" stroke="#0F172A"/>
    <path d="M496 72V132" stroke="#0F172A"/>
  </g>
  <path d="M416 122C432 112 444 88 458 88C472 88 480 114 492 114C500 114 507 106 514 96" stroke="url(#accent)" stroke-width="3.5" stroke-linecap="round"/>
  <circle cx="416" cy="122" r="6" fill="#D8895F"/>
  <circle cx="458" cy="88" r="6" fill="#5A7FD2"/>
  <circle cx="492" cy="114" r="6" fill="#4D8A7D"/>
</svg>
