<svg width="560" height="190" viewBox="0 0 560 190" fill="none" xmlns="http://www.w3.org/2000/svg" role="img" aria-labelledby="title desc">
  <title id="title">SST FTM card</title>
  <desc id="desc">A profile card describing the SST FTM reconstruction project.</desc>

  <defs>
    <linearGradient id="bg" x1="16" y1="16" x2="544" y2="174" gradientUnits="userSpaceOnUse">
      <stop stop-color="#F8FBFA"/>
      <stop offset="1" stop-color="#F5FAF8"/>
    </linearGradient>
    <linearGradient id="accent" x1="404" y1="128" x2="514" y2="82" gradientUnits="userSpaceOnUse">
      <stop stop-color="#4D8A7D"/>
      <stop offset="1" stop-color="#5A7FD2"/>
    </linearGradient>
  </defs>

  <rect x="12" y="12" width="536" height="166" rx="28" fill="url(#bg)"/>
  <rect x="12" y="12" width="536" height="166" rx="28" stroke="#E2E8EE"/>

  <rect x="28" y="28" width="124" height="134" rx="24" fill="#FFFFFF" fill-opacity="0.72"/>
  <rect x="28" y="28" width="124" height="134" rx="24" stroke="#E7ECF1"/>
  <rect x="44" y="44" width="60" height="20" rx="10" fill="#EEF6F3"/>
  <text x="54" y="58" fill="#4D8378" font-family="ui-monospace, SFMono-Regular, Menlo, monospace" font-size="9">PROJECT</text>
  <text x="44" y="98" fill="#0F172A" font-family="Georgia, 'Times New Roman', serif" font-size="36" font-weight="700">03</text>
  <text x="44" y="122" fill="#526173" font-family="ui-monospace, SFMono-Regular, Menlo, monospace" font-size="10">SCIENTIFIC</text>
  <text x="44" y="137" fill="#526173" font-family="ui-monospace, SFMono-Regular, Menlo, monospace" font-size="10">ML</text>

  <text x="178" y="60" fill="#0F172A" font-family="Georgia, 'Times New Roman', serif" font-size="22" font-weight="700">SST_FTM</text>
  <text x="178" y="85" fill="#0F172A" font-family="Georgia, 'Times New Roman', serif" font-size="22" font-weight="700">Reconstruction Project</text>
  <text x="178" y="106" fill="#64748B" font-family="ui-monospace, SFMono-Regular, Menlo, monospace" font-size="10.5">reconstruction with priors and operators</text>

  <rect x="178" y="118" width="88" height="20" rx="10" fill="#EEF6F3"/>
  <rect x="274" y="118" width="92" height="20" rx="10" fill="#EDF2FB"/>
  <text x="196" y="131" fill="#4D8378" font-family="ui-monospace, SFMono-Regular, Menlo, monospace" font-size="9">ocean fields</text>
  <text x="296" y="131" fill="#5776B7" font-family="ui-monospace, SFMono-Regular, Menlo, monospace" font-size="9">hybrid priors</text>

  <text x="178" y="150" fill="#334155" font-family="system-ui, -apple-system, BlinkMacSystemFont, 'Segoe UI', sans-serif" font-size="11.5">Recovers sparse geophysical fields</text>
  <text x="178" y="165" fill="#334155" font-family="system-ui, -apple-system, BlinkMacSystemFont, 'Segoe UI', sans-serif" font-size="11.5">with priors and operator learning.</text>

  <rect x="392" y="38" width="128" height="114" rx="22" fill="#FFFFFF" fill-opacity="0.66"/>
  <rect x="392" y="38" width="128" height="114" rx="22" stroke="#E2E8EE"/>
  <rect x="406" y="50" width="66" height="18" rx="9" fill="#EEF6F3"/>
  <text x="420" y="62" fill="#4D8378" font-family="ui-monospace, SFMono-Regular, Menlo, monospace" font-size="8.5">field grid</text>
  <g opacity="0.96">
    <rect x="408" y="80" width="18" height="18" rx="5" fill="#EDF6F2"/>
    <rect x="430" y="80" width="18" height="18" rx="5" fill="#EDF2FB"/>
    <rect x="452" y="80" width="18" height="18" rx="5" fill="#EDF6F2"/>
    <rect x="474" y="80" width="18" height="18" rx="5" fill="#FBF1EA"/>
    <rect x="408" y="102" width="18" height="18" rx="5" fill="#EDF2FB"/>
    <rect x="430" y="102" width="18" height="18" rx="5" fill="#EDF6F2"/>
    <rect x="452" y="102" width="18" height="18" rx="5" fill="#EDF2FB"/>
    <rect x="474" y="102" width="18" height="18" rx="5" fill="#EDF6F2"/>
  </g>
  <path d="M410 132C426 120 442 120 456 132C470 144 486 144 500 132" stroke="url(#accent)" stroke-width="3.5" stroke-linecap="round"/>
  <rect x="444" y="134" width="50" height="18" rx="9" fill="#EDF2FB"/>
  <text x="455" y="146" fill="#5776B7" font-family="ui-monospace, SFMono-Regular, Menlo, monospace" font-size="8.5">fields</text>
</svg>
