<svg width="560" height="190" viewBox="0 0 560 190" fill="none" xmlns="http://www.w3.org/2000/svg" role="img" aria-labelledby="title desc">
  <title id="title">SST FTM card</title>
  <desc id="desc">A profile card describing the SST FTM reconstruction layer.</desc>

  <defs>
    <linearGradient id="bg" x1="16" y1="16" x2="544" y2="174" gradientUnits="userSpaceOnUse">
      <stop stop-color="#F7FBFE"/>
      <stop offset="1" stop-color="#F2FBF7"/>
    </linearGradient>
    <linearGradient id="accent" x1="364" y1="132" x2="512" y2="54" gradientUnits="userSpaceOnUse">
      <stop stop-color="#0F766E"/>
      <stop offset="1" stop-color="#2563EB"/>
    </linearGradient>
  </defs>

  <rect x="12" y="12" width="536" height="166" rx="28" fill="url(#bg)"/>
  <rect x="12" y="12" width="536" height="166" rx="28" stroke="#D8E2EC"/>

  <rect x="32" y="32" width="84" height="22" rx="11" fill="#E5F7F1"/>
  <text x="47" y="47" fill="#0F766E" font-family="ui-monospace, SFMono-Regular, Menlo, monospace" font-size="10">LAYER 03</text>

  <text x="32" y="83" fill="#0F172A" font-family="Georgia, 'Times New Roman', serif" font-size="28" font-weight="700">SST_FTM</text>

  <rect x="32" y="102" width="88" height="20" rx="10" fill="#E5F7F1"/>
  <rect x="128" y="102" width="96" height="20" rx="10" fill="#E7F0FF"/>
  <rect x="232" y="102" width="92" height="20" rx="10" fill="#FFF0E5"/>
  <text x="50" y="115" fill="#0F766E" font-family="ui-monospace, SFMono-Regular, Menlo, monospace" font-size="9">ocean fields</text>
  <text x="149" y="115" fill="#1D4ED8" font-family="ui-monospace, SFMono-Regular, Menlo, monospace" font-size="9">reconstruction</text>
  <text x="255" y="115" fill="#C2410C" font-family="ui-monospace, SFMono-Regular, Menlo, monospace" font-size="9">hybrid priors</text>

  <text x="32" y="145" fill="#334155" font-family="system-ui, -apple-system, BlinkMacSystemFont, 'Segoe UI', sans-serif" font-size="12">Recovers sparse or corrupted geophysical fields with scientific priors and operator learning.</text>

  <rect x="356" y="42" width="152" height="104" rx="20" fill="#FFFFFF" fill-opacity="0.74" stroke="#D8E2EC"/>
  <g opacity="0.96">
    <rect x="374" y="58" width="20" height="20" rx="6" fill="#DDF4EC"/>
    <rect x="398" y="58" width="20" height="20" rx="6" fill="#CDE7FB"/>
    <rect x="422" y="58" width="20" height="20" rx="6" fill="#DDF4EC"/>
    <rect x="446" y="58" width="20" height="20" rx="6" fill="#FFE7D4"/>
    <rect x="470" y="58" width="20" height="20" rx="6" fill="#CDE7FB"/>
    <rect x="374" y="82" width="20" height="20" rx="6" fill="#CDE7FB"/>
    <rect x="398" y="82" width="20" height="20" rx="6" fill="#DDF4EC"/>
    <rect x="422" y="82" width="20" height="20" rx="6" fill="#CDE7FB"/>
    <rect x="446" y="82" width="20" height="20" rx="6" fill="#DDF4EC"/>
    <rect x="470" y="82" width="20" height="20" rx="6" fill="#FFE7D4"/>
    <rect x="374" y="106" width="20" height="20" rx="6" fill="#FFE7D4"/>
    <rect x="398" y="106" width="20" height="20" rx="6" fill="#CDE7FB"/>
    <rect x="422" y="106" width="20" height="20" rx="6" fill="#DDF4EC"/>
    <rect x="446" y="106" width="20" height="20" rx="6" fill="#CDE7FB"/>
    <rect x="470" y="106" width="20" height="20" rx="6" fill="#DDF4EC"/>
  </g>

  <path d="M372 145C392 130 411 130 430 145C450 160 469 160 492 145" stroke="url(#accent)" stroke-width="4" stroke-linecap="round"/>
</svg>
