<svg width="560" height="190" viewBox="0 0 560 190" fill="none" xmlns="http://www.w3.org/2000/svg" role="img" aria-labelledby="title desc">
  <title id="title">RL for Agent workflow card</title>
  <desc id="desc">A minimal project card for RL for Agent.</desc>

  <defs>
    <linearGradient id="bg" x1="16" y1="16" x2="544" y2="174" gradientUnits="userSpaceOnUse">
      <stop stop-color="#F7FAFF"/>
      <stop offset="1" stop-color="#F7FBFA"/>
    </linearGradient>
    <linearGradient id="accent" x1="404" y1="128" x2="514" y2="82" gradientUnits="userSpaceOnUse">
      <stop stop-color="#5A7FD2"/>
      <stop offset="1" stop-color="#4D8A7D"/>
    </linearGradient>
  </defs>

  <rect x="12" y="12" width="536" height="166" rx="28" fill="url(#bg)"/>
  <rect x="12" y="12" width="536" height="166" rx="28" stroke="#E2E8EE"/>

  <rect x="28" y="28" width="124" height="134" rx="24" fill="#FFFFFF" fill-opacity="0.72"/>
  <rect x="28" y="28" width="124" height="134" rx="24" stroke="#E7ECF1"/>
  <rect x="44" y="44" width="60" height="20" rx="10" fill="#EEF2FB"/>
  <text x="54" y="58" fill="#5874B1" font-family="ui-monospace, SFMono-Regular, Menlo, monospace" font-size="9">PROJECT</text>
  <text x="44" y="98" fill="#0F172A" font-family="Georgia, 'Times New Roman', serif" font-size="36" font-weight="700">02</text>
  <text x="44" y="122" fill="#526173" font-family="ui-monospace, SFMono-Regular, Menlo, monospace" font-size="10">PAPER</text>
  <text x="44" y="137" fill="#526173" font-family="ui-monospace, SFMono-Regular, Menlo, monospace" font-size="10">WORKFLOW</text>

  <text x="176" y="68" fill="#0F172A" font-family="Georgia, 'Times New Roman', serif" font-size="24" font-weight="700">RL_for_Agent</text>
  <text x="176" y="94" fill="#64748B" font-family="ui-monospace, SFMono-Regular, Menlo, monospace" font-size="11">public paper-to-code agent</text>

  <rect x="176" y="112" width="64" height="20" rx="10" fill="#EEF2FB"/>
  <rect x="248" y="112" width="76" height="20" rx="10" fill="#EEF6F3"/>
  <text x="194" y="125" fill="#5874B1" font-family="ui-monospace, SFMono-Regular, Menlo, monospace" font-size="9">public</text>
  <text x="266" y="125" fill="#4D8378" font-family="ui-monospace, SFMono-Regular, Menlo, monospace" font-size="9">tool loops</text>

  <rect x="392" y="38" width="128" height="114" rx="22" fill="#FFFFFF" fill-opacity="0.66"/>
  <rect x="392" y="38" width="128" height="114" rx="22" stroke="#E2E8EE"/>
  <rect x="406" y="50" width="68" height="18" rx="9" fill="#EEF2FB"/>
  <text x="420" y="62" fill="#5874B1" font-family="ui-monospace, SFMono-Regular, Menlo, monospace" font-size="8.5">tool loop</text>
  <rect x="408" y="80" width="48" height="12" rx="6" fill="#EEF2FB"/>
  <rect x="408" y="100" width="76" height="10" rx="5" fill="#E2E8F0"/>
  <rect x="408" y="116" width="62" height="10" rx="5" fill="#E2E8F0"/>
  <path d="M486 90H504" stroke="#CBD5E1" stroke-width="2" stroke-linecap="round"/>
  <path d="M486 106H504" stroke="#CBD5E1" stroke-width="2" stroke-linecap="round"/>
  <path d="M490 98C494 92 500 92 504 98C500 104 494 104 490 98Z" fill="url(#accent)"/>
  <circle cx="516" cy="98" r="6" fill="#4D8A7D"/>
</svg>
