<svg width="560" height="190" viewBox="0 0 560 190" fill="none" xmlns="http://www.w3.org/2000/svg" role="img" aria-labelledby="title desc">
  <title id="title">SST FTM card</title>
  <desc id="desc">A profile card describing the SST FTM reconstruction layer.</desc>

  <defs>
    <linearGradient id="bg" x1="16" y1="16" x2="544" y2="174" gradientUnits="userSpaceOnUse">
      <stop stop-color="#F7FBFE"/>
      <stop offset="1" stop-color="#F2FBF7"/>
    </linearGradient>
    <linearGradient id="accent" x1="398" y1="126" x2="516" y2="78" gradientUnits="userSpaceOnUse">
      <stop stop-color="#0F766E"/>
      <stop offset="1" stop-color="#2563EB"/>
    </linearGradient>
  </defs>

  <rect x="12" y="12" width="536" height="166" rx="28" fill="url(#bg)"/>
  <rect x="12" y="12" width="536" height="166" rx="28" stroke="#D8E2EC"/>

  <rect x="28" y="28" width="124" height="134" rx="24" fill="#FFFFFF" fill-opacity="0.78"/>
  <rect x="28" y="28" width="124" height="134" rx="24" stroke="#E2E8F0"/>
  <rect x="44" y="44" width="60" height="20" rx="10" fill="#E5F7F1"/>
  <text x="54" y="58" fill="#0F766E" font-family="ui-monospace, SFMono-Regular, Menlo, monospace" font-size="9">PROJECT</text>
  <text x="44" y="98" fill="#0F172A" font-family="Georgia, 'Times New Roman', serif" font-size="36" font-weight="700">03</text>
  <text x="44" y="122" fill="#475569" font-family="ui-monospace, SFMono-Regular, Menlo, monospace" font-size="10">SCIENTIFIC</text>
  <text x="44" y="137" fill="#475569" font-family="ui-monospace, SFMono-Regular, Menlo, monospace" font-size="10">ML</text>

  <text x="178" y="68" fill="#0F172A" font-family="Georgia, 'Times New Roman', serif" font-size="27" font-weight="700">SST_FTM</text>
  <text x="178" y="94" fill="#64748B" font-family="ui-monospace, SFMono-Regular, Menlo, monospace" font-size="11">scientific reconstruction for ocean fields</text>

  <rect x="178" y="108" width="88" height="20" rx="10" fill="#E5F7F1"/>
  <rect x="274" y="108" width="92" height="20" rx="10" fill="#E7F0FF"/>
  <text x="196" y="121" fill="#0F766E" font-family="ui-monospace, SFMono-Regular, Menlo, monospace" font-size="9">ocean fields</text>
  <text x="296" y="121" fill="#1D4ED8" font-family="ui-monospace, SFMono-Regular, Menlo, monospace" font-size="9">hybrid priors</text>

  <text x="178" y="146" fill="#334155" font-family="system-ui, -apple-system, BlinkMacSystemFont, 'Segoe UI', sans-serif" font-size="12">Recovers sparse or corrupted geophysical fields with scientific priors</text>
  <text x="178" y="162" fill="#334155" font-family="system-ui, -apple-system, BlinkMacSystemFont, 'Segoe UI', sans-serif" font-size="12">and operator-style learning for structured reconstruction.</text>

  <rect x="392" y="38" width="128" height="114" rx="22" fill="#FFFFFF" fill-opacity="0.72"/>
  <rect x="392" y="38" width="128" height="114" rx="22" stroke="#D8E2EC"/>
  <g opacity="0.96">
    <rect x="408" y="54" width="18" height="18" rx="5" fill="#DDF4EC"/>
    <rect x="430" y="54" width="18" height="18" rx="5" fill="#CDE7FB"/>
    <rect x="452" y="54" width="18" height="18" rx="5" fill="#DDF4EC"/>
    <rect x="474" y="54" width="18" height="18" rx="5" fill="#FFE7D4"/>
    <rect x="408" y="76" width="18" height="18" rx="5" fill="#CDE7FB"/>
    <rect x="430" y="76" width="18" height="18" rx="5" fill="#DDF4EC"/>
    <rect x="452" y="76" width="18" height="18" rx="5" fill="#CDE7FB"/>
    <rect x="474" y="76" width="18" height="18" rx="5" fill="#DDF4EC"/>
    <rect x="408" y="98" width="18" height="18" rx="5" fill="#FFE7D4"/>
    <rect x="430" y="98" width="18" height="18" rx="5" fill="#CDE7FB"/>
    <rect x="452" y="98" width="18" height="18" rx="5" fill="#DDF4EC"/>
    <rect x="474" y="98" width="18" height="18" rx="5" fill="#CDE7FB"/>
  </g>
  <path d="M410 130C426 118 442 118 456 130C470 142 486 142 500 130" stroke="url(#accent)" stroke-width="4" stroke-linecap="round"/>
</svg>
