<svg width="560" height="190" viewBox="0 0 560 190" fill="none" xmlns="http://www.w3.org/2000/svg" role="img" aria-labelledby="title desc">
  <title id="title">Ifactformer Earthquake Prediction card</title>
  <desc id="desc">A profile card describing the Ifactformer Earthquake Prediction project.</desc>

  <defs>
    <linearGradient id="bg" x1="16" y1="16" x2="544" y2="174" gradientUnits="userSpaceOnUse">
      <stop stop-color="#FCFAF7"/>
      <stop offset="1" stop-color="#F5F8FD"/>
    </linearGradient>
    <linearGradient id="accent" x1="404" y1="128" x2="514" y2="82" gradientUnits="userSpaceOnUse">
      <stop stop-color="#D8895F"/>
      <stop offset="0.58" stop-color="#5A7FD2"/>
      <stop offset="1" stop-color="#4D8A7D"/>
    </linearGradient>
  </defs>

  <rect x="12" y="12" width="536" height="166" rx="28" fill="url(#bg)"/>
  <rect x="12" y="12" width="536" height="166" rx="28" stroke="#E2E8EE"/>

  <rect x="28" y="28" width="124" height="134" rx="24" fill="#FFFFFF" fill-opacity="0.72"/>
  <rect x="28" y="28" width="124" height="134" rx="24" stroke="#E7ECF1"/>
  <rect x="44" y="44" width="60" height="20" rx="10" fill="#FBF1EA"/>
  <text x="54" y="58" fill="#AA6646" font-family="ui-monospace, SFMono-Regular, Menlo, monospace" font-size="9">PROJECT</text>
  <text x="44" y="98" fill="#0F172A" font-family="Georgia, 'Times New Roman', serif" font-size="36" font-weight="700">04</text>
  <text x="44" y="122" fill="#526173" font-family="ui-monospace, SFMono-Regular, Menlo, monospace" font-size="10">PHYSICAL</text>
  <text x="44" y="137" fill="#526173" font-family="ui-monospace, SFMono-Regular, Menlo, monospace" font-size="10">FORECAST</text>

  <text x="178" y="60" fill="#0F172A" font-family="Georgia, 'Times New Roman', serif" font-size="23" font-weight="700">Ifactformer</text>
  <text x="178" y="86" fill="#0F172A" font-family="Georgia, 'Times New Roman', serif" font-size="23" font-weight="700">Earthquake Prediction</text>
  <text x="178" y="108" fill="#64748B" font-family="ui-monospace, SFMono-Regular, Menlo, monospace" font-size="11">long-horizon prediction for physical wavefield dynamics</text>

  <rect x="178" y="120" width="74" height="20" rx="10" fill="#FBF1EA"/>
  <rect x="260" y="120" width="88" height="20" rx="10" fill="#EDF2FB"/>
  <text x="195" y="133" fill="#AA6646" font-family="ui-monospace, SFMono-Regular, Menlo, monospace" font-size="9">wavefield</text>
  <text x="284" y="133" fill="#5776B7" font-family="ui-monospace, SFMono-Regular, Menlo, monospace" font-size="9">forecasting</text>

  <text x="178" y="154" fill="#334155" font-family="system-ui, -apple-system, BlinkMacSystemFont, 'Segoe UI', sans-serif" font-size="12">Stable rollout for long-range physical prediction in spatiotemporal</text>
  <text x="178" y="170" fill="#334155" font-family="system-ui, -apple-system, BlinkMacSystemFont, 'Segoe UI', sans-serif" font-size="12">systems with staged training and autoregressive forecasting.</text>

  <rect x="392" y="38" width="128" height="114" rx="22" fill="#FFFFFF" fill-opacity="0.66"/>
  <rect x="392" y="38" width="128" height="114" rx="22" stroke="#E2E8EE"/>
  <rect x="406" y="50" width="76" height="18" rx="9" fill="#FBF1EA"/>
  <text x="420" y="62" fill="#AA6646" font-family="ui-monospace, SFMono-Regular, Menlo, monospace" font-size="8.5">trace rollouts</text>
  <g opacity="0.16">
    <path d="M408 80H504" stroke="#0F172A"/>
    <path d="M408 104H504" stroke="#0F172A"/>
    <path d="M408 128H504" stroke="#0F172A"/>
  </g>
  <path d="M408 122C418 116 428 88 440 88C452 88 458 124 470 124C482 124 488 74 500 74" stroke="url(#accent)" stroke-width="3.5" stroke-linecap="round"/>
  <path d="M408 136C418 132 428 110 440 110C452 110 458 140 470 140C482 140 488 96 500 96" stroke="#2563EB" stroke-opacity="0.18" stroke-width="3" stroke-linecap="round"/>
  <circle cx="440" cy="88" r="5.5" fill="#5A7FD2"/>
  <circle cx="470" cy="124" r="5.5" fill="#D8895F"/>
  <circle cx="500" cy="74" r="5.5" fill="#4D8A7D"/>
  <rect x="444" y="134" width="56" height="18" rx="9" fill="#EEF6F3"/>
  <text x="456" y="146" fill="#4D8378" font-family="ui-monospace, SFMono-Regular, Menlo, monospace" font-size="8.5">horizon</text>
</svg>
