<svg width="1280" height="220" viewBox="0 0 1280 220" fill="none" xmlns="http://www.w3.org/2000/svg" role="img" aria-labelledby="title desc">
  <title id="title">lkun profile banner</title>
  <desc id="desc">A calm profile banner with minimal identity text and abstract scientific patterns.</desc>

  <defs>
    <linearGradient id="bg" x1="24" y1="18" x2="1256" y2="202" gradientUnits="userSpaceOnUse">
      <stop stop-color="#FBF8F3"/>
      <stop offset="0.5" stop-color="#F3FAF8"/>
      <stop offset="1" stop-color="#F2F6FF"/>
    </linearGradient>
    <linearGradient id="accentA" x1="92" y1="70" x2="492" y2="176" gradientUnits="userSpaceOnUse">
      <stop stop-color="#0F766E"/>
      <stop offset="1" stop-color="#2563EB"/>
    </linearGradient>
    <linearGradient id="accentB" x1="760" y1="118" x2="1138" y2="84" gradientUnits="userSpaceOnUse">
      <stop stop-color="#EA580C"/>
      <stop offset="0.5" stop-color="#2563EB"/>
      <stop offset="1" stop-color="#0F766E"/>
    </linearGradient>
    <filter id="shadow" x="-10" y="-10" width="1300" height="240" filterUnits="userSpaceOnUse" color-interpolation-filters="sRGB">
      <feDropShadow dx="0" dy="10" stdDeviation="14" flood-color="#0F172A" flood-opacity="0.06"/>
    </filter>
  </defs>

  <g filter="url(#shadow)">
    <rect x="20" y="20" width="1240" height="180" rx="28" fill="url(#bg)"/>
    <rect x="20" y="20" width="1240" height="180" rx="28" stroke="#D8E2EC"/>
  </g>

  <g opacity="0.68">
    <circle cx="1114" cy="78" r="82" fill="#E8F7F3"/>
    <circle cx="1048" cy="162" r="38" fill="#FFF0E5"/>
    <circle cx="176" cy="154" r="56" fill="#E7F0FF"/>
  </g>

  <rect x="74" y="50" width="514" height="120" rx="24" fill="#FFFFFF" fill-opacity="0.66"/>
  <rect x="74" y="50" width="514" height="120" rx="24" stroke="#D8E2EC"/>
  <rect x="98" y="72" width="6" height="76" rx="3" fill="url(#accentA)"/>

  <text x="122" y="78" fill="#0F766E" fill-opacity="0.9" font-family="ui-monospace, SFMono-Regular, Menlo, monospace" font-size="12" letter-spacing="2.1">AI FOR SCIENCE</text>
  <text x="122" y="114" fill="#0F172A" font-family="Georgia, 'Times New Roman', serif" font-size="34" font-weight="700">lkun</text>
  <text x="122" y="139" fill="#334155" font-family="system-ui, -apple-system, BlinkMacSystemFont, 'Segoe UI', sans-serif" font-size="16">Research engineer building AI agents for scientific ML.</text>

  <rect x="122" y="149" width="82" height="22" rx="11" fill="#E5F7F1"/>
  <rect x="214" y="149" width="108" height="22" rx="11" fill="#E7F0FF"/>
  <rect x="332" y="149" width="126" height="22" rx="11" fill="#FFF0E5"/>
  <text x="146" y="164" fill="#0F766E" font-family="ui-monospace, SFMono-Regular, Menlo, monospace" font-size="10">agents</text>
  <text x="239" y="164" fill="#1D4ED8" font-family="ui-monospace, SFMono-Regular, Menlo, monospace" font-size="10">scientific ml</text>
  <text x="358" y="164" fill="#C2410C" font-family="ui-monospace, SFMono-Regular, Menlo, monospace" font-size="10">research systems</text>

  <g opacity="0.2">
    <path d="M670 48H1210" stroke="#0F172A" stroke-width="1"/>
    <path d="M670 76H1210" stroke="#0F172A" stroke-width="1"/>
    <path d="M670 104H1210" stroke="#0F172A" stroke-width="1"/>
    <path d="M670 132H1210" stroke="#0F172A" stroke-width="1"/>
    <path d="M670 160H1210" stroke="#0F172A" stroke-width="1"/>
    <path d="M718 48V172" stroke="#0F172A" stroke-width="1"/>
    <path d="M790 48V172" stroke="#0F172A" stroke-width="1"/>
    <path d="M862 48V172" stroke="#0F172A" stroke-width="1"/>
    <path d="M934 48V172" stroke="#0F172A" stroke-width="1"/>
    <path d="M1006 48V172" stroke="#0F172A" stroke-width="1"/>
    <path d="M1078 48V172" stroke="#0F172A" stroke-width="1"/>
    <path d="M1150 48V172" stroke="#0F172A" stroke-width="1"/>
  </g>

  <rect x="708" y="50" width="448" height="120" rx="24" fill="#FFFFFF" fill-opacity="0.54"/>
  <rect x="708" y="50" width="448" height="120" rx="24" stroke="#D8E2EC"/>
  <path d="M746 124C790 98 832 84 874 86C922 89 956 123 1008 124C1056 126 1094 104 1142 76" stroke="url(#accentB)" stroke-width="4.5" stroke-linecap="round"/>
  <path d="M746 144C790 118 832 104 874 106C922 109 956 143 1008 144C1056 146 1094 124 1142 96" stroke="#2563EB" stroke-opacity="0.16" stroke-width="3" stroke-linecap="round"/>
  <text x="748" y="76" fill="#64748B" font-family="ui-monospace, SFMono-Regular, Menlo, monospace" font-size="11">physical systems / long-horizon forecasting / reproducible workflows</text>
</svg>
