<svg width="400" height="300" viewBox="0 0 400 300" xmlns="http://www.w3.org/2000/svg">
<rect width="400" height="300" rx="4.5" fill="#0d1117" />
<text x="200" y="30" text-anchor="middle" fill="#0891b2" font-family="'Segoe UI', Ubuntu, sans-serif" font-weight="600" font-size="16">Language Distribution</text>
<path d="M 140.0 50.0 A 100 100 0 1 1 83.8 67.3 L 109.1 104.5 A 55 55 0 1 0 140.0 95.0 Z" fill="#3572A5" stroke="#0d1117" stroke-width="2" />
<path d="M 83.8 67.3 A 100 100 0 0 1 133.7 50.2 L 136.5 95.1 A 55 55 0 0 0 109.1 104.5 Z" fill="#3178c6" stroke="#0d1117" stroke-width="2" />
<path d="M 133.7 50.2 A 100 100 0 0 1 137.8 50.0 L 138.8 95.0 A 55 55 0 0 0 136.5 95.1 Z" fill="#555555" stroke="#0d1117" stroke-width="2" />
<path d="M 137.8 50.0 A 100 100 0 0 1 139.2 50.0 L 139.6 95.0 A 55 55 0 0 0 138.8 95.0 Z" fill="#89e051" stroke="#0d1117" stroke-width="2" />
<path d="M 139.2 50.0 A 100 100 0 0 1 139.7 50.0 L 139.8 95.0 A 55 55 0 0 0 139.6 95.0 Z" fill="#e34c26" stroke="#0d1117" stroke-width="2" />
<path d="M 139.7 50.0 A 100 100 0 0 1 140.0 50.0 L 140.0 95.0 A 55 55 0 0 0 139.8 95.0 Z" fill="#663399" stroke="#0d1117" stroke-width="2" />
<circle cx="140" cy="150" r="53" fill="#0d1117" />
<text x="140" y="145" text-anchor="middle" fill="#ffffff" font-family="'Segoe UI', sans-serif" font-weight="700" font-size="20">8</text>
<text x="140" y="165" text-anchor="middle" fill="#64748b" font-family="'Segoe UI', sans-serif" font-size="11">Languages</text>
<circle cx="265" cy="65" r="6" fill="#3572A5" />
<text x="279" y="69" fill="#ffffff" font-family="'Segoe UI', sans-serif" font-size="13" font-weight="600">Python</text>
<text x="279" y="83" fill="#64748b" font-family="'Segoe UI', sans-serif" font-size="11">90.5%</text>
<circle cx="265" cy="100" r="6" fill="#3178c6" />
<text x="279" y="104" fill="#ffffff" font-family="'Segoe UI', sans-serif" font-size="13" font-weight="600">TypeScript</text>
<text x="279" y="118" fill="#64748b" font-family="'Segoe UI', sans-serif" font-size="11">8.5%</text>
<circle cx="265" cy="135" r="6" fill="#555555" />
<text x="279" y="139" fill="#ffffff" font-family="'Segoe UI', sans-serif" font-size="13" font-weight="600">C</text>
<text x="279" y="153" fill="#64748b" font-family="'Segoe UI', sans-serif" font-size="11">0.6%</text>
<circle cx="265" cy="170" r="6" fill="#89e051" />
<text x="279" y="174" fill="#ffffff" font-family="'Segoe UI', sans-serif" font-size="13" font-weight="600">Shell</text>
<text x="279" y="188" fill="#64748b" font-family="'Segoe UI', sans-serif" font-size="11">0.2%</text>
<circle cx="265" cy="205" r="6" fill="#e34c26" />
<text x="279" y="209" fill="#ffffff" font-family="'Segoe UI', sans-serif" font-size="13" font-weight="600">HTML</text>
<text x="279" y="223" fill="#64748b" font-family="'Segoe UI', sans-serif" font-size="11">0.1%</text>
<circle cx="265" cy="240" r="6" fill="#663399" />
<text x="279" y="244" fill="#ffffff" font-family="'Segoe UI', sans-serif" font-size="13" font-weight="600">CSS</text>
<text x="279" y="258" fill="#64748b" font-family="'Segoe UI', sans-serif" font-size="11">0.0%</text>
</svg>