<svg width="400" height="350" viewBox="0 0 400 350" xmlns="http://www.w3.org/2000/svg">
<rect width="400" height="350" rx="4.5" fill="#0d1117" />
<text x="200" y="30" text-anchor="middle" fill="#0891b2" font-family="'Segoe UI', Ubuntu, sans-serif" font-weight="600" font-size="16">Skills Radar</text>
<polygon points="200.0,160.0 226.0,175.0 226.0,205.0 200.0,220.0 174.0,205.0 174.0,175.0" fill="none" stroke="#1e293b" stroke-width="1" />
<polygon points="200.0,130.0 252.0,160.0 252.0,220.0 200.0,250.0 148.0,220.0 148.0,160.0" fill="none" stroke="#1e293b" stroke-width="1" />
<polygon points="200.0,100.0 277.9,145.0 277.9,235.0 200.0,280.0 122.1,235.0 122.1,145.0" fill="none" stroke="#1e293b" stroke-width="1" />
<polygon points="200.0,70.0 303.9,130.0 303.9,250.0 200.0,310.0 96.1,250.0 96.1,130.0" fill="none" stroke="#1e293b" stroke-width="1" />
<line x1="200" y1="190" x2="200.0" y2="70.0" stroke="#1e293b" stroke-width="1" />
<line x1="200" y1="190" x2="303.9" y2="130.0" stroke="#1e293b" stroke-width="1" />
<line x1="200" y1="190" x2="303.9" y2="250.0" stroke="#1e293b" stroke-width="1" />
<line x1="200" y1="190" x2="200.0" y2="310.0" stroke="#1e293b" stroke-width="1" />
<line x1="200" y1="190" x2="96.1" y2="250.0" stroke="#1e293b" stroke-width="1" />
<line x1="200" y1="190" x2="96.1" y2="130.0" stroke="#1e293b" stroke-width="1" />
<polygon points="200.0,119.3 230.1,172.6 232.2,208.6 200.0,245.2 193.8,193.6 184.4,181.0" fill="#0891b2" fill-opacity="0.25" stroke="#06b6d4" stroke-width="2.5" />
<circle cx="200.0" cy="119.3" r="4" fill="#06b6d4" stroke="#0d1117" stroke-width="2" />
<text x="200.0" y="45.0" text-anchor="middle" fill="#cdd9e5" font-family="'Segoe UI', sans-serif" font-size="13" font-weight="600">Commits</text>
<text x="200.0" y="59.0" text-anchor="middle" fill="#64748b" font-family="'Segoe UI', sans-serif" font-size="10">58%</text>
<circle cx="230.1" cy="172.6" r="4" fill="#06b6d4" stroke="#0d1117" stroke-width="2" />
<text x="325.6" y="117.5" text-anchor="start" fill="#cdd9e5" font-family="'Segoe UI', sans-serif" font-size="13" font-weight="600">Stars</text>
<text x="325.6" y="131.5" text-anchor="start" fill="#64748b" font-family="'Segoe UI', sans-serif" font-size="10">28%</text>
<circle cx="232.2" cy="208.6" r="4" fill="#06b6d4" stroke="#0d1117" stroke-width="2" />
<text x="325.6" y="262.5" text-anchor="start" fill="#cdd9e5" font-family="'Segoe UI', sans-serif" font-size="13" font-weight="600">PRs</text>
<text x="325.6" y="276.5" text-anchor="start" fill="#64748b" font-family="'Segoe UI', sans-serif" font-size="10">31%</text>
<circle cx="200.0" cy="245.2" r="4" fill="#06b6d4" stroke="#0d1117" stroke-width="2" />
<text x="200.0" y="335.0" text-anchor="middle" fill="#cdd9e5" font-family="'Segoe UI', sans-serif" font-size="13" font-weight="600">Repos</text>
<text x="200.0" y="349.0" text-anchor="middle" fill="#64748b" font-family="'Segoe UI', sans-serif" font-size="10">46%</text>
<circle cx="193.8" cy="193.6" r="4" fill="#06b6d4" stroke="#0d1117" stroke-width="2" />
<text x="74.4" y="262.5" text-anchor="end" fill="#cdd9e5" font-family="'Segoe UI', sans-serif" font-size="13" font-weight="600">Followers</text>
<text x="74.4" y="276.5" text-anchor="end" fill="#64748b" font-family="'Segoe UI', sans-serif" font-size="10">6%</text>
<circle cx="184.4" cy="181.0" r="4" fill="#06b6d4" stroke="#0d1117" stroke-width="2" />
<text x="74.4" y="117.5" text-anchor="end" fill="#cdd9e5" font-family="'Segoe UI', sans-serif" font-size="13" font-weight="600">Contrib</text>
<text x="74.4" y="131.5" text-anchor="end" fill="#64748b" font-family="'Segoe UI', sans-serif" font-size="10">15%</text>
</svg>